<svg xmlns="http://www.w3.org/2000/svg" viewBox="0 0 512 512">
  <g transform="scale(0.2048)">
    <path
      d="M226,760v980c0,63,33,120,88,152l849,490c54,31,121,31,175,0l849-490
         c54-31,88-89,88-152V760c0-63-33-120-88-152l-849-490c-54-31-121-31-175,0
         L314,608c-54,31-87,89-87,152H226z"
      fill="#213147"
    />

    <path
      d="M1435,1440l-121,332c-3,9-3,19,0,29l208,571l241-139l-289-793
         C1467,1422,1442,1422,1435,1440z"
      fill="#12AAFF"
    />

    <path
      d="M1678,882c-7-18-32-18-39,0l-121,332c-3,9-3,19,0,29l341,935l241-139
         L1678,883z"
      fill="#12AAFF"
    />

    <path
      d="M1250,155c6,0,12,2,17,5l918,530c11,6,17,18,17,30v1060
         c0,12-7,24-17,30l-918,530c-5,3-11,5-17,5s-12-2-17-5
         l-918-530c-11-6-17-18-17-30V719c0-12,7-24,17-30l918-530
         c5-3,11-5,17-5z

         M1250,0c-33,0-65,8-95,25L237,555c-59,34-95,96-95,164v1060
         c0,68,36,130,95,164l918,530c29,17,62,25,95,25s65-8,95-25
         l918-530c59-34,95-96,95-164V719c0-68-36-130-95-164
         L1344,25c-29-17-62-25-95-25z"
      fill="#9DCCED"
    />

    <polygon
      points="642,2179 727,1947 897,2088 738,2234"
      fill="#213147"
    />

    <path
      d="M1172,644H939c-17,0-33,11-39,27L401,2039l241,139l550-1507
         c5-14-5-28-19-28z"
      fill="#FFFFFF"
    />

    <path
      d="M1580,644h-233c-17,0-33,11-39,27L738,2233l241,139
         l620-1701c5-14-5-28-19-28z"
      fill="#FFFFFF"
    />
  </g>
</svg>
