<svg xmlns="http://www.w3.org/2000/svg" viewBox="0 0 512 512">
  <circle cx="256" cy="256" r="256" fill="#F7931A"/>

  <path
    fill="#FFFFFF"
    fill-rule="nonzero"
    d="
      M371.024 224.32
      c5.024-33.536-20.528-51.568-55.44-63.6
      l11.328-45.44-27.648-6.88-11.04 44.24
      c-7.264-1.824-14.72-3.52-22.16-5.216
      l11.12-44.528-27.648-6.88-11.328 45.424
      c-6.016-1.376-11.936-2.72-17.664-4.16
      l.032-.144-38.144-9.52-7.36 29.536
      s20.528 4.704 20.096 4.992
      c11.2 2.8 13.216 10.208 12.88 16.096
      l-12.896 51.76
      c.768.192 1.76.48 2.88.912
      l-2.928-.72-18.08 72.512
      c-1.376 3.392-4.848 8.496-12.688 6.56
      c.288.4-20.096-5.008-20.096-5.008
      l-13.728 31.648 36 8.976
      c6.688 1.68 13.248 3.44 19.696 5.088
      l-11.44 45.952 27.632 6.88
      l11.328-45.44
      c7.552 2.032 14.88 3.92 22.048 5.712
      l-11.296 45.248 27.648 6.88
      l11.44-45.856
      c47.168 8.928 82.624 5.328 97.552-37.328
      c12.032-34.336-.592-54.16-25.408-67.072
      c18.08-4.16 31.68-16.048 35.312-40.608
      z

      m-63.2 88.608
      c-8.528 34.352-66.368 15.776-85.12 11.12
      l15.2-60.88
      c18.752 4.688 78.864 13.952 69.92 49.76
      z

      m8.56-89.104
      c-7.792 31.248-55.92 15.36-71.52 11.472
      l13.76-55.2
      c15.6 3.888 65.888 11.136 57.76 43.728
      z
    "
  />
</svg>
