<svg xmlns="http://www.w3.org/2000/svg" viewBox="0 0 512 512">
  <!-- Фон -->
  <circle cx="256" cy="256" r="256" fill="#FF0420"/>

  <!-- Левая часть логотипа -->
  <path
    fill="#FFFFFF"
    d="
      M181.35 324.0
      c-15.26 0-27.78-3.58-37.5-10.75
      c-9.63-7.27-14.44-17.72-14.44-31.15
      c0-2.87 0.31-6.25 0.92-10.35
      c1.64-9.22 3.99-20.28 7.07-33.28
      c8.7-35.24 31.23-52.86 67.52-52.86
      c9.83 0 18.75 1.64 26.52 5.02
      c7.78 3.17 13.93 8.09 18.44 14.64
      c4.51 6.46 6.76 14.13 6.76 23.04
      c0 2.66-0.31 6.05-0.92 10.14
      c-1.95 11.37-4.2 22.53-6.97 33.28
      c-4.51 17.51-12.19 30.72-23.24 39.42
      C214.51 319.8 199.78 324.0 181.35 324.0
      Z

      M184.1 296.35
      c7.17 0 13.21-2.15 18.23-6.35
      c5.12-4.2 8.81-10.65 10.96-19.46
      c2.97-12.09 5.22-22.54 6.76-31.55
      c0.51-2.66 0.82-5.42 0.82-8.29
      c0-11.69-6.04-17.54-18.23-17.54
      c-7.17 0-13.31 2.15-18.44 6.35
      c-5.02 4.2-8.6 10.65-10.75 19.46
      c-2.35 8.6-4.61 19.05-6.97 31.55
      c-0.51 2.56-0.82 5.22-0.82 8.09
      C165.56 290.6 171.81 296.35 184.1 296.35
      Z
    "
  />

  <!-- Правая часть логотипа -->
  <path
    fill="#FFFFFF"
    d="
      M265.45 322.15
      c-1.43 0-2.46-0.41-3.28-1.33
      c-0.61-1.02-0.82-2.15-0.61-3.48
      L288.1 192.2
      c0.2-1.43 0.92-2.56 2.15-3.48
      c1.13-0.92 2.35-1.33 3.69-1.33
      H345.3
      c14.23 0 25.59 2.97 34.19 8.8
      c8.7 5.94 13.01 14.44 13.01 25.6
      c0 3.17-0.41 6.55-1.13 10.03
      c-3.17 14.74-9.63 25.6-19.46 32.67
      c-9.63 7.07-22.84 10.55-39.62 10.55
      h-25.91
      l-8.8 42.06
      c-0.31 1.43-0.92 2.56-2.15 3.48
      c-1.13 0.92-2.35 1.33-3.69 1.33
      H265.45
      Z

      M333.48 248.73
      c5.43 0 10.04-1.43 14.03-4.4
      c4.1-2.97 6.76-7.17 8.09-12.7
      c0.41-2.15 0.61-4.1 0.61-5.73
      c0-3.69-1.13-6.55-3.28-8.5
      c-2.15-2.05-5.94-3.07-11.16-3.07
      h-23.04
      l-7.28 34.4
      H333.48
      Z
    "
  />
</svg>
