<svg xmlns="http://www.w3.org/2000/svg" viewBox="0 0 512 512">
  <!-- Фон -->
  <circle cx="256" cy="256" r="256" fill="#000000"/>

  <!-- Верхняя линия -->
  <path
    d="M155.2 328.45
       c1.8-1.8 4.2-2.85 6.83-2.85
       H399.9
       c4.86 0 7.29 5.73 3.86 9.16
       l-47.88 48
       c-1.8 1.8-4.2 2.85-6.83 2.85
       H112.1
       c-4.86 0-7.29-5.73-3.86-9.16
       l47.0-48Z"
    fill="url(#grad1)"
  />

  <!-- Средняя линия -->
  <path
    d="M356.9 239.0
       c-1.8-1.8-4.2-2.85-6.83-2.85
       H112.1
       c-4.86 0-7.29 5.73-3.86 9.16
       l47.0 48
       c1.8 1.8 4.2 2.85 6.83 2.85
       H399.9
       c4.86 0 7.29-5.73 3.86-9.16
       l-46.88-48Z"
    fill="url(#grad1)"
  />

  <!-- Нижняя линия -->
  <path
    d="M155.2 149.0
       c1.8-1.8 4.2-2.85 6.83-2.85
       H399.9
       c4.86 0 7.29 5.73 3.86 9.16
       l-47.88 48
       c-1.8 1.8-4.2 2.85-6.83 2.85
       H112.1
       c-4.86 0-7.29-5.73-3.86-9.16
       l47.0-48Z"
    fill="url(#grad1)"
  />

  <!-- Градиент Solana -->
  <defs>
    <linearGradient id="grad1" x1="400" y1="80" x2="160" y2="440" gradientUnits="userSpaceOnUse">
      <stop offset="0%" stop-color="#00FFA3"/>
      <stop offset="100%" stop-color="#DC1FFF"/>
    </linearGradient>
  </defs>
</svg>
