<svg xmlns="http://www.w3.org/2000/svg" viewBox="0 0 512 512">
  <circle cx="256" cy="256" r="256" fill="#0098EA" />
  <g transform="scale(21.3333)">
    <path
      d="M16.0515 6H7.94766C6.45764 6 5.51328 7.60728 6.26286 8.90663L11.2643 17.5755C11.5906 18.1415 12.4085 18.1415 12.7349 17.5755L17.7373 8.90663C18.486 7.60936 17.5415 6 16.0526 6H16.0515ZM11.2602 14.9758L10.171 12.8678L7.5428 8.16721C7.36942 7.86635 7.58357 7.48082 7.94664 7.48082H11.2592V14.9768L11.2602 14.9758ZM16.4544 8.1662L13.8272 12.8688L12.738 14.9758V7.4798H16.0505C16.4136 7.4798 16.6277 7.86534 16.4544 8.1662Z"
      fill="#FFFFFF"
    />
  </g>
</svg>
