<svg xmlns="http://www.w3.org/2000/svg" viewBox="0 0 512 512">
  <g fill="none">
    <circle cx="256" cy="256" r="256" fill="#F3BA2F"/>

    <path
      fill="#FFFFFF"
      d="
        M193.856 230.464
        L256 168.32
        L318.176 230.464
        L354.336 194.304
        L256 96
        L157.664 194.304
        L193.856 230.464

        M96 256
        L132.16 219.84
        L168.32 256
        L132.16 292.16
        L96 256

        M193.856 281.536
        L256 343.68
        L318.176 281.536
        L354.336 317.696
        L256 416
        L157.664 317.696
        L157.616 317.648
        L193.808 281.552

        M343.68 256
        L379.84 219.84
        L416 256
        L379.84 292.16
        L343.68 256

        M292.672 255.968
        H292.704
        V256
        L256 292.704
        L219.344 256.048
        L219.28 255.984
        L219.344 255.952
        L225.76 249.536
        L228.88 246.416
        L256 219.296
        L292.704 256
        Z
      "
    />
  </g>
</svg>
