<svg xmlns="http://www.w3.org/2000/svg" viewBox="0 0 512 512">
  <g transform="scale(5.6888889)">
    <mask id="mask0_175_939" maskUnits="userSpaceOnUse" x="0" y="0" width="90" height="90" style="mask-type: luminance;">
      <path d="M90 0H0V90H90V0Z" fill="#FFFFFF"></path>
    </mask>
    <g mask="url(#mask0_175_939)">
      <rect width="90" height="90" fill="none"/>
      <path d="M80.4222 54.4213C77.273 53.3542 66.2377 50.5173 58.6639 59.2622C57.0763 52.9638 51.3244 48.6173 44.8438 48.8255H44.8178C38.3372 48.6173 32.5593 52.9638 30.9716 59.2622C23.502 50.6474 12.701 53.2761 9.36956 54.3692H9.34354C9.4997 57.2061 10.4887 59.9389 12.1284 62.2553C21.7843 75.685 35.4222 80.604 44.6877 80.7342C44.7137 80.7342 44.7657 80.7342 44.8178 80.7342H44.8959C44.974 80.7342 45.026 80.7342 45.1041 80.7342C54.3696 80.604 68.0075 75.685 77.6634 62.2553C79.303 59.9389 80.266 57.2321 80.4222 54.4213Z" fill="#FFFFFF"></path>
    </g>

    <mask id="mask1_175_939" maskUnits="userSpaceOnUse" x="0" y="0" width="90" height="90" style="mask-type: luminance;">
      <path d="M90 0H0V90H90V0Z" fill="#FFFFFF"></path>
    </mask>
    <g mask="url(#mask1_175_939)">
      <path d="M44.974 0C69.8294 0 89.974 20.1446 89.974 45C89.974 69.8554 69.8294 90 44.974 90C20.1186 90 -0.0260315 69.8554 -0.0260315 45C-0.0260315 20.1446 20.1446 0 44.974 0Z" fill="#CF1324"></path>
    </g>

    <mask id="mask2_175_939" maskUnits="userSpaceOnUse" x="0" y="0" width="90" height="90" style="mask-type: luminance;">
      <path d="M90 0H0V90H90V0Z" fill="#FFFFFF"></path>
    </mask>
    <g mask="url(#mask2_175_939)">
      <path d="M18.557 23.3983C20.8994 20.7176 23.7363 18.5053 26.8855 16.8917C20.9774 9.99463 16.2146 6.58514 14.1324 5.77832C12.3106 11.322 14.4187 20.0669 16.3968 26.1311C17.0735 25.1681 17.8022 24.2572 18.557 23.3983Z" fill="#EA5D0C"></path>
    </g>

    <mask id="mask3_175_939" maskUnits="userSpaceOnUse" x="0" y="0" width="90" height="90" style="mask-type: luminance;">
      <path d="M90 0H0V90H90V0Z" fill="#FFFFFF"></path>
    </mask>
    <g mask="url(#mask3_175_939)">
      <path d="M71.2348 23.3983C71.8855 24.1271 72.4841 24.9079 73.0827 25.7147C75.0087 19.6505 76.9867 11.1919 75.2169 5.77832C73.1608 6.58515 68.45 9.94258 62.594 16.7355C65.8733 18.3492 68.8143 20.6135 71.2348 23.3983Z" fill="#EA5D0C"></path>
    </g>

    <mask id="mask4_175_939" maskUnits="userSpaceOnUse" x="0" y="0" width="90" height="90" style="mask-type: luminance;">
      <path d="M90 0H0V90H90V0Z" fill="#FFFFFF"></path>
    </mask>
    <g mask="url(#mask4_175_939)">
      <path d="M71.2348 23.3983C68.8143 20.6395 65.8733 18.3752 62.594 16.7355C68.45 9.94255 73.1608 6.55909 75.2169 5.77829C76.9867 11.1918 75.0087 19.6765 73.0827 25.7147C72.4841 24.8818 71.8855 24.127 71.2348 23.3983ZM18.557 23.3983C17.8022 24.2832 17.0734 25.1941 16.4228 26.1311C14.4448 20.0669 12.3366 11.322 14.1585 5.77829C16.2406 6.58511 21.0035 9.9946 26.9115 16.8917C23.7362 18.5053 20.8993 20.6915 18.557 23.3983ZM80.3181 50.9865C79.1989 43.5169 77.5072 37.0102 74.9046 31.6748C77.0648 26.5475 78.5483 21.16 79.303 15.6424C79.8236 11.2439 79.6414 6.74128 77.9497 3.01947C77.5593 2.18662 76.6483 1.74417 75.7634 1.92635C74.2539 2.21265 71.6252 3.17563 68.0075 6.06458C64.3117 9.13572 60.9803 12.6233 58.0653 16.4492C53.8751 15.1479 49.5286 14.4972 45.1301 14.5493C45.052 14.5493 45 14.5493 44.9219 14.5493C44.8438 14.5493 44.7918 14.5493 44.7137 14.5493C40.2111 14.4972 35.7345 15.1999 31.4401 16.5793C28.4991 12.7014 25.1157 9.16175 21.3678 6.06458C17.7501 3.20166 15.1475 2.23867 13.6379 1.95238C12.727 1.77019 11.8421 2.21264 11.4517 3.04549C9.75996 6.74127 9.57777 11.2179 10.0723 15.5903C10.8531 21.2901 12.4147 26.8598 14.679 32.1432C12.2065 37.4006 10.5668 43.7251 9.4997 50.9865C9.34354 52.1057 9.29149 53.2248 9.39559 54.37C12.727 53.2768 23.528 50.6482 30.9977 59.263C32.5853 52.9645 38.3372 48.6181 44.8438 48.8263C47.1602 48.7742 49.4505 49.2948 51.5327 50.2838C55.0723 52.1577 57.6489 55.411 58.6639 59.263C66.2377 50.492 77.273 53.3549 80.4222 54.422C80.5263 53.2768 80.4742 52.1317 80.3181 50.9865Z" fill="#F28F3C"></path>
    </g>

    <mask id="mask5_175_939" maskUnits="userSpaceOnUse" x="0" y="0" width="90" height="90" style="mask-type: luminance;">
      <path d="M90 0H0V90H90V0Z" fill="#FFFFFF"></path>
    </mask>
    <g mask="url(#mask5_175_939)">
      <path d="M54.8381 67.5395C54.4737 68.2683 54.2655 69.0491 54.2655 69.8559C54.2394 70.0901 54.0312 70.2723 53.771 70.2723H53.2504L52.0792 73.3955C52.0532 73.4736 51.9751 73.5517 51.871 73.5517C51.819 73.5517 51.7669 73.5256 51.7149 73.4996C51.4806 73.2393 51.2724 72.953 51.0902 72.6407C51.0382 72.5887 51.0382 72.5106 51.0382 72.4325V68.8669C49.0081 69.1532 46.978 69.2833 44.9479 69.2833H44.8178C42.7877 69.2833 40.7577 69.1271 38.7536 68.8408V72.4065C38.7536 72.4846 38.7276 72.5626 38.7016 72.6147C38.5194 72.927 38.3112 73.2133 38.0769 73.4736C37.9988 73.5517 37.8427 73.5517 37.7646 73.4736C37.7386 73.4476 37.7125 73.4215 37.7125 73.3955L36.5414 70.2723H36.0208C35.7606 70.2723 35.5523 70.0901 35.5263 69.8559C35.5003 69.0491 35.2921 68.2683 34.9537 67.5395C34.8756 67.3834 34.9537 67.2012 35.1099 67.1491C35.1359 67.1231 35.188 67.1231 35.214 67.1231C36.177 67.0971 38.2591 67.071 38.6755 67.0971H42.3453C42.6836 66.5245 43.2302 66.108 43.8548 65.8738V63.4273C39.5084 62.8807 38.9618 58.8987 39.0399 56.5563C39.0659 55.5933 39.8728 54.8125 40.8357 54.8125H48.9821C49.9451 54.8125 50.7519 55.5933 50.7779 56.5563C50.856 58.9247 50.3094 62.8807 45.963 63.4273V65.8738C46.5876 66.082 47.1082 66.5245 47.4725 67.0971H51.1423C51.5587 67.071 53.6408 67.1231 54.6038 67.1231C54.76 67.1231 54.8901 67.2792 54.8901 67.4354C54.8641 67.4614 54.8641 67.5135 54.8381 67.5395Z" fill="#22263F"></path>
    </g>

    <mask id="mask6_175_939" maskUnits="userSpaceOnUse" x="0" y="0" width="90" height="90" style="mask-type: luminance;">
      <path d="M90 0H0V90H90V0Z" fill="#FFFFFF"></path>
    </mask>
    <g mask="url(#mask6_175_939)">
      <path d="M54.838 67.5387C54.4737 68.2674 54.2655 69.0482 54.2655 69.855C54.2394 70.0893 54.0312 70.2715 53.771 70.2715H53.2504L52.0792 73.3947C52.0532 73.4727 51.9751 73.5508 51.871 73.5508C51.819 73.5508 51.7669 73.5248 51.7148 73.4988C51.4806 73.2385 51.2724 72.9522 51.0902 72.6399C51.0382 72.5878 51.0382 72.5097 51.0382 72.4317V68.866C49.0081 69.1523 46.978 69.2824 44.9219 69.2824H44.7918C42.7617 69.2824 40.7316 69.1263 38.7276 68.866V72.4317C38.7276 72.5097 38.7016 72.5878 38.6755 72.6399C38.4933 72.9522 38.2851 73.2385 38.0509 73.4988C37.9728 73.5768 37.8166 73.5768 37.7386 73.4988C37.7125 73.4727 37.7125 73.4467 37.6865 73.4207L36.5153 70.2975H35.9948C35.7345 70.2975 35.5263 70.1153 35.5003 69.8811C35.4742 69.0742 35.266 68.2934 34.9277 67.5647C34.8496 67.4085 34.9277 67.2263 35.0838 67.1743C35.1099 67.1483 35.1619 67.1483 35.188 67.1483C36.1509 67.1222 38.2331 67.0962 38.6495 67.1222H42.3192C42.6576 66.5497 43.2042 66.1332 43.8288 65.899V63.4525C39.4823 62.9059 38.9358 58.9239 39.0139 56.5815C39.0399 55.6185 39.8467 54.8377 40.8097 54.8377H48.956C49.919 54.8377 50.7258 55.6185 50.7519 56.5815C50.8299 58.9499 50.2834 62.9059 45.9369 63.4525V65.899C46.5616 66.1072 47.1081 66.5497 47.4465 67.1222H51.1162C51.5327 67.0962 53.6148 67.1483 54.5778 67.1483C54.7339 67.1483 54.8641 67.3044 54.8641 67.4606C54.8641 67.4606 54.8641 67.5126 54.838 67.5387ZM49.2163 71.2865C49.2163 71.807 48.878 72.2755 48.3834 72.4317C48.3054 72.4577 48.2013 72.4577 48.1232 72.4577C47.4985 72.4577 47.4205 71.6248 46.7438 71.6248C46.0671 71.6248 45.8849 73.6549 44.8959 73.733H44.8699H44.8438C44.8178 73.733 44.8178 73.733 44.7918 73.733C43.8548 73.6029 43.6726 71.6509 43.022 71.6509C42.3453 71.6509 42.2672 72.4837 41.6426 72.4837C41.5645 72.4837 41.4604 72.4837 41.3823 72.4577C40.8878 72.3015 40.5494 71.8331 40.5494 71.3125V70.7139H49.2163V71.2865ZM80.4222 54.4213C77.273 53.3542 66.2377 50.5173 58.664 59.2622C57.6489 55.3842 55.0723 52.1309 51.5327 50.283C49.4505 49.294 47.1602 48.7995 44.8438 48.8255C38.3632 48.6173 32.5853 52.9638 30.9977 59.2622C23.528 50.6474 12.727 53.2761 9.3956 54.3692C9.3956 54.3692 9.39559 54.3692 9.36957 54.3692C9.52573 57.2061 10.5147 59.9389 12.1544 62.2553C21.8103 75.685 35.4482 80.604 44.7137 80.7342H44.8438V80.4999V80.7081C44.8699 80.7081 44.8959 80.7081 44.9219 80.7081C44.974 80.7081 45.052 80.7081 45.1301 80.7081C48.0711 80.63 50.9861 80.1876 53.797 79.3808C63.4789 76.5439 71.9115 70.5057 77.6894 62.2292C79.303 59.9389 80.266 57.2321 80.4222 54.4213Z" fill="#FFFFFF"></path>
    </g>

    <mask id="mask7_175_939" maskUnits="userSpaceOnUse" x="0" y="0" width="90" height="90" style="mask-type: luminance;">
      <path d="M90 0H0V90H90V0Z" fill="#FFFFFF"></path>
    </mask>
    <g mask="url(#mask7_175_939)">
      <path d="M49.2163 70.6885V71.2871C49.2163 71.8076 48.878 72.2761 48.3834 72.4323C48.3054 72.4583 48.2013 72.4583 48.1232 72.4583C47.4985 72.4583 47.4205 71.6254 46.7438 71.6254C46.0671 71.6254 45.8849 73.6555 44.8959 73.7336H44.8699H44.8438C44.8178 73.7336 44.8178 73.7336 44.7918 73.7336C43.8548 73.6035 43.6726 71.6515 43.022 71.6515C42.3453 71.6515 42.2672 72.4843 41.6426 72.4843C41.5645 72.4843 41.4604 72.4843 41.3823 72.4583C40.8878 72.3021 40.5494 71.8337 40.5494 71.3131V70.7145H49.2163V70.6885Z" fill="#22263F"></path>
    </g>

    <mask id="mask8_175_939" maskUnits="userSpaceOnUse" x="0" y="0" width="90" height="90" style="mask-type: luminance;">
      <path d="M90 0H0V90H90V0Z" fill="#FFFFFF"></path>
    </mask>
    <g mask="url(#mask8_175_939)">
      <path d="M66.0035 41.4602L65.6131 38.337C65.6131 37.8165 65.1966 37.374 64.6501 37.374C64.546 37.374 64.4158 37.4001 64.3117 37.4261C60.9283 38.7014 51.4286 43.0478 52.4956 45.8847C53.4586 47.8367 61.2666 45.7286 65.1446 43.0739C65.7172 42.7615 66.0555 42.1109 66.0035 41.4602Z" fill="#22263F"></path>
    </g>

    <mask id="mask9_175_939" maskUnits="userSpaceOnUse" x="0" y="0" width="90" height="90" style="mask-type: luminance;">
      <path d="M90 0H0V90H90V0Z" fill="#FFFFFF"></path>
    </mask>
    <g mask="url(#mask9_175_939)">
      <path d="M23.9445 41.4602L24.3349 38.337C24.3349 37.8165 24.7513 37.374 25.2978 37.374C25.4019 37.374 25.5321 37.4001 25.6362 37.4261C29.0196 38.7014 38.5194 43.0478 37.4523 45.8847C36.4893 47.8367 28.6813 45.7286 24.8033 43.0739C24.2828 42.7095 23.9445 42.1109 23.9445 41.4602Z" fill="#22263F"></path>
    </g>

    <mask id="mask10_175_939" maskUnits="userSpaceOnUse" x="0" y="0" width="90" height="90" style="mask-type: luminance;">
      <path d="M90 0H0V90H90V0Z" fill="#FFFFFF"></path>
    </mask>
    <g mask="url(#mask10_175_939)">
      <path d="M36.7495 36.4371C34.8496 36.281 30.8675 35.8906 29.6183 35.1098C27.9526 34.0687 28.6553 29.3058 34.6154 29.9825C39.17 30.477 39.7166 33.6002 38.8837 35.37C38.4413 36.1248 37.6084 36.5412 36.7495 36.4371Z" fill="#FFFFFF"></path>
    </g>

    <mask id="mask11_175_939" maskUnits="userSpaceOnUse" x="0" y="0" width="90" height="90" style="mask-type: luminance;">
      <path d="M90 0H0V90H90V0Z" fill="#FFFFFF"></path>
    </mask>
    <g mask="url(#mask11_175_939)">
      <path d="M53.2244 36.4371C55.1244 36.281 59.1064 35.8906 60.3557 35.1098C62.0214 34.0687 61.3187 29.3058 55.3586 29.9825C50.8039 30.477 50.2574 33.6002 51.0902 35.37C51.5327 36.1248 52.3655 36.5412 53.2244 36.4371Z" fill="#FFFFFF"></path>
    </g>
  </g>
</svg>
