<svg xmlns="http://www.w3.org/2000/svg" viewBox="0 0 512 512">
  <!-- Фон -->
  <circle cx="256" cy="256" r="256" fill="#3E73C4" />

  <!-- Логотип -->
  <g fill="#FFFFFF">
    <path
      d="
        M320.352 289.984
        c0-33.984-20.48-45.632-61.44-50.496
        c-29.248-3.888-35.088-11.648-35.088-25.248
        c0-13.6 9.76-22.336 29.248-22.336
        c17.552 0 27.312 5.824 32.176 20.4
        a7.328 7.328 0 0 0 6.832 4.848
        h15.6
        a6.656 6.656 0 0 0 6.832-6.8
        v-0.96
        a48.64 48.64 0 0 0-43.888-39.824
        V146.272
        c0-3.888-2.928-6.8-7.792-7.776
        h-14.64
        c-3.888 0-6.816 2.912-7.792 7.776
        v22.336
        c-29.264 3.872-47.776 23.296-47.776 47.584
        c0 32.032 19.488 44.656 60.448 49.504
        c27.312 4.848 36.08 10.688 36.08 26.224
        c0 15.52-13.648 26.208-32.176 26.208
        c-25.36 0-34.128-10.672-37.056-25.248
        c-0.96-3.872-3.904-5.824-6.832-5.824
        h-16.576
        a6.656 6.656 0 0 0-6.816 6.8
        v0.96
        c3.888 24.288 19.504 41.792 51.68 46.624
        v23.312
        c0 3.872 2.928 6.8 7.792 7.76
        h14.64
        c3.888 0 6.816-2.912 7.792-7.76
        V341.248
        c29.264-4.848 48.752-25.248 48.752-51.264
        z
      "
    />

    <path
      d="
        M206.272 391.952
        c-76.064-27.2-115.072-111.68-86.784-186.448
        c14.624-40.8 46.8-71.856 86.784-86.432
        c3.904-1.936 5.84-4.848 5.84-9.712
        v-13.6
        c0-3.872-1.936-6.784-5.84-7.76
        c-0.976 0-2.928 0-3.904 0.96
        a174.32 174.32 0 0 0-114.08 219.472
        c17.536 54.4 59.472 96.16 114.08 113.632
        c3.904 1.936 7.792 0 8.768-3.888
        c0.976-0.96 0.976-1.952 0.976-3.888
        v-13.6
        c0-2.912-2.928-6.784-5.84-8.736
        z
      "
    />

    <path
      d="
        M309.632 89.984
        c-3.904-1.952-7.792 0-8.768 3.872
        c-0.976 0.976-0.976 1.952-0.976 3.888
        v13.6
        c0 3.888 2.928 7.76 5.84 9.712
        c76.064 27.2 115.072 111.68 86.784 186.448
        c-14.624 40.8-46.8 71.856-86.784 86.432
        c-3.904 1.936-5.84 4.848-5.84 9.712
        v13.6
        c0 3.872 1.936 6.784 5.84 7.76
        c0.976 0 2.928 0 3.904-0.96
        a174.32 174.32 0 0 0 114.08-219.472
        c-17.536-55.36-60.448-97.12-114.08-114.592
        z
      "
    />
  </g>
</svg>
