<svg xmlns="http://www.w3.org/2000/svg" viewBox="0 0 512 512">
  <!-- Масштабируем оригинал 48x48 в 512x512 -->
  <g transform="scale(10.6666667)">
    <rect width="48" height="48" rx="24" fill="#216C58"/>
    <path fill-rule="evenodd" clip-rule="evenodd" d="M24 46.8C36.5921 46.8 46.8 36.5921 46.8 24C46.8 11.4079 36.5921 1.2 24 1.2C11.4079 1.2 1.2 11.4079 1.2 24C1.2 36.5921 11.4079 46.8 24 46.8ZM24 48C37.2548 48 48 37.2548 48 24C48 10.7452 37.2548 0 24 0C10.7452 0 0 10.7452 0 24C0 37.2548 10.7452 48 24 48Z" fill="white"/>
    <path fill-rule="evenodd" clip-rule="evenodd" d="M44.1295 25.2C43.8117 25.2 43.5496 25.4488 43.5214 25.7655C42.6288 35.7631 34.2295 43.6 23.9998 43.6C13.7701 43.6 5.37072 35.7631 4.47821 25.7655C4.44994 25.4488 4.18794 25.2 3.87005 25.2C3.52468 25.2 3.24959 25.4918 3.27968 25.8358C4.20904 36.4636 13.1309 44.8 23.9998 44.8C34.8687 44.8 43.7905 36.4636 44.7199 25.8358C44.7499 25.4918 44.4749 25.2 44.1295 25.2ZM3.87005 22.8C4.18794 22.8 4.44994 22.5512 4.47821 22.2347C5.37072 12.2371 13.7701 4.40007 23.9998 4.40007C34.2295 4.40007 42.6288 12.2371 43.5214 22.2347C43.5496 22.5512 43.8117 22.8 44.1295 22.8C44.4749 22.8 44.7499 22.5084 44.7199 22.1643C43.7905 11.5366 34.8687 3.20007 23.9998 3.20007C13.1309 3.20007 4.20904 11.5366 3.27968 22.1643C3.24959 22.5084 3.52468 22.8 3.87005 22.8Z" fill="white"/>
    <path d="M32.399 9.19995H17.199C16.7571 9.19995 16.399 9.55812 16.399 9.99995V10.4C16.399 10.8418 16.7571 11.2 17.199 11.2H32.399C32.8408 11.2 33.199 10.8418 33.199 10.4V9.99995C33.199 9.55812 32.8408 9.19995 32.399 9.19995Z" fill="white"/>
    <path d="M21.9987 13.3717C22.6378 13.2772 23.3034 13.2218 23.9987 13.2052V11.9999H21.9987V13.3717Z" fill="white"/>
    <path d="M21.9987 18.4384C22.0557 18.4158 22.1141 18.394 22.1739 18.373C22.6951 18.1869 23.2949 18.0923 23.9987 18.0671V22.5655C23.6573 22.4854 23.3326 22.3967 23.0215 22.2996C22.6326 22.1671 22.2923 22.022 21.9987 21.8659V18.4384Z" fill="white"/>
    <path d="M27.1993 18.6284C26.6483 18.3396 25.9816 18.1625 25.1993 18.0933V22.8226L26.8285 23.1682C26.953 23.1933 27.0766 23.2194 27.1993 23.2464V18.6284Z" fill="white"/>
    <path d="M21.9987 27.2756L23.9987 27.724V32.7345C23.2721 32.7092 22.6168 32.5967 22.0489 32.4022C22.0321 32.3963 22.0153 32.3903 21.9987 32.3842V27.2756Z" fill="white"/>
    <path d="M25.1993 27.9975C25.8452 28.1572 26.4078 28.3298 26.8892 28.516C26.9969 28.556 27.1002 28.5977 27.1993 28.641V32.0714C26.9928 32.1995 26.7461 32.3177 26.4537 32.4229C26.0875 32.5507 25.6716 32.6436 25.1993 32.6947V27.9975Z" fill="white"/>
    <path d="M27.1993 37.4068C26.5687 37.5006 25.9013 37.56 25.1993 37.5855V39.1999C25.1993 39.6417 25.5575 39.9999 25.9993 39.9999H26.3993C26.8411 39.9999 27.1993 39.6417 27.1993 39.1999V37.4068Z" fill="white"/>
    <path d="M23.9987 37.5967C23.3005 37.5845 22.634 37.5392 21.9987 37.4609V39.1999C21.9987 39.6417 22.3569 39.9999 22.7987 39.9999H23.1987C23.6406 39.9999 23.9987 39.6417 23.9987 39.1999V37.5967Z" fill="white"/>
    <path d="M25.1993 13.2145C25.894 13.2419 26.5609 13.3082 27.1993 13.4154V11.9999H25.1993V13.2145Z" fill="white"/>
    <path d="M19.4134 14.8724C20.89 14.2933 22.5394 14 24.4474 14C26.3587 14 28.0249 14.2843 29.4559 14.8702C30.8927 15.4584 32.0108 16.2694 32.8103 17.3037C33.449 18.14 33.8407 19.0649 33.981 20.1035L33.9812 20.1049C34.0427 20.5479 33.6832 20.9199 33.2274 20.9199H29.5274C29.1177 20.9199 28.7878 20.6107 28.6553 20.2289C28.4535 19.6471 28.0729 19.1789 27.5171 18.8157C26.7486 18.3075 25.7121 18.0599 24.4074 18.0599C23.5234 18.0599 22.7932 18.1519 22.1739 18.373C21.5535 18.5908 21.0876 18.8957 20.7617 19.2819L20.7569 19.2877C20.4407 19.677 20.2787 20.1338 20.2774 20.6239C20.2662 21.0287 20.3664 21.378 20.5624 21.6785L20.5674 21.6862L20.5728 21.6937C20.7886 21.9934 21.0819 22.2596 21.4645 22.4847L21.469 22.4873C21.8455 22.7024 22.2797 22.8922 22.7686 23.0586L22.7781 23.0617C23.2717 23.216 23.7947 23.3492 24.3567 23.4617L26.6644 23.9512L26.6683 23.952C27.787 24.1777 28.8236 24.4812 29.7592 24.8515C30.6984 25.2292 31.5133 25.6907 32.1986 26.2331C32.8859 26.7792 33.4191 27.4257 33.8024 28.1642L33.8032 28.1659C34.1905 28.9036 34.3972 29.7485 34.3974 30.7087C34.3877 32.1191 33.992 33.3314 33.1912 34.365L33.1895 34.3672C32.4051 35.3944 31.2635 36.1857 29.7651 36.7562C28.284 37.3236 26.475 37.6 24.3874 37.6C22.3028 37.6 20.4916 37.3147 18.9458 36.7447L18.9437 36.7439C17.4069 36.1867 16.2127 35.3389 15.3444 34.226C14.6337 33.2901 14.2074 32.1804 14.0548 30.8839C14.0054 30.4485 14.3685 30.0699 14.8174 30.0699H18.5274C18.9404 30.0699 19.2843 30.3995 19.3907 30.8021L19.3917 30.806C19.5168 31.2607 19.7234 31.6519 20.0101 31.996L20.0151 32.002C20.4575 32.5123 21.0495 32.8978 21.7842 33.1572L21.7877 33.1584C22.5376 33.4155 23.3928 33.54 24.3174 33.54C25.2428 33.54 26.0387 33.4153 26.7193 33.1775L26.7227 33.1763C27.4051 32.9311 27.9382 32.6003 28.3145 32.1779C28.7009 31.7542 28.8874 31.2587 28.8874 30.7099C28.8874 30.2019 28.721 29.7707 28.3754 29.4123C28.0423 29.0675 27.5455 28.7598 26.8892 28.516C26.2445 28.2667 25.4543 28.0417 24.5132 27.8393L21.7049 27.2096L21.7023 27.2091C19.5311 26.7375 17.8139 25.9972 16.5564 24.9969C15.2993 23.9986 14.6774 22.6477 14.6774 20.9499C14.6774 19.5554 15.0897 18.3363 15.9276 17.3025C16.7774 16.2641 17.937 15.4513 19.4134 14.8724Z" fill="white"/>
  </g>
</svg>
