<svg xmlns="http://www.w3.org/2000/svg" viewBox="0 0 512 512">
  <!-- Фон -->
  <circle cx="256" cy="256" r="256" fill="#26A17B"/>

  <!-- Логотип USDT -->
  <path
    fill="#FFFFFF"
    d="
      M286.752 278.128
      v-0.032
      c-1.76 0.128-10.832 0.672-31.072 0.672
      c-16.16 0-27.536-0.48-31.536-0.672
      v0.048
      c-62.208-2.736-108.64-13.568-108.64-26.528
      c0-12.944 46.432-23.792 108.64-26.56
      v42.304
      c4.064 0.288 15.712 0.976 31.808 0.976
      c19.312 0 29.024-0.8 30.816-0.96
      v-42.304
      c62.08 2.768 108.4 13.6 108.4 26.56
      c0 12.96-46.32 23.76-108.4 26.496

      m0-57.44
      V182.912
      h86.624
      V124.304
      H138.224
      v58.608
      h86.624
      v37.856
      c-70.4 3.232-123.344 17.216-123.344 33.888
      c0 16.704 52.944 30.64 123.344 33.888
      v121.312
      h62.608
      V288.416
      c70.288-3.232 123.104-17.168 123.104-33.856
      c0-16.688-52.816-30.624-123.104-33.856
    "
  />
</svg>
